<?xml version="1.0" encoding="utf-8"?>
<!-- Generator: Adobe Illustrator 18.1.1, SVG Export Plug-In . SVG Version: 6.00 Build 0)  -->
<svg version="1.1" id="图层_1" xmlns="http://www.w3.org/2000/svg" xmlns:xlink="http://www.w3.org/1999/xlink" x="0px" y="0px"
	 viewBox="0 0 40 40" enable-background="new 0 0 40 40" xml:space="preserve">
<g>
	<path fill="#FFFFFF" d="M2,39.5c-0.8,0-1.5-0.7-1.5-1.5V2c0-0.8,0.7-1.5,1.5-1.5h36c0.8,0,1.5,0.7,1.5,1.5v36
		c0,0.8-0.7,1.5-1.5,1.5H2z"/>
	<g>
		<path fill="#E01A3A" d="M38,1c0.6,0,1,0.4,1,1v36c0,0.6-0.4,1-1,1H2c-0.6,0-1-0.4-1-1V2c0-0.6,0.4-1,1-1H38 M38,0H2
			C0.9,0,0,0.9,0,2v36c0,1.1,0.9,2,2,2h36c1.1,0,2-0.9,2-2V2C40,0.9,39.1,0,38,0L38,0z"/>
	</g>
</g>
<circle fill="#E01A3A" cx="20.3" cy="20" r="14"/>
<path fill="#FFFFFF" d="M25,26H15c-0.6,0-1-0.5-1-1V15c0-0.6,0.4-1,1-1h10c0.5,0,1,0.4,1,1v10C26,25.5,25.5,26,25,26z"/>
<g>
	<path fill="#E01A3A" d="M24.3,23.5c0.1,0.1,0.2,0.2,0.2,0.4s-0.1,0.3-0.2,0.4s-0.2,0.2-0.4,0.2s-0.3-0.1-0.4-0.2L20,20.8l-3.5,3.5
		c-0.1,0.1-0.2,0.2-0.4,0.2c-0.1,0-0.2,0-0.3-0.1s-0.2-0.1-0.2-0.2s-0.1-0.2,0-0.3s0.1-0.2,0.1-0.3l3.5-3.5l-3.5-3.5
		c-0.1-0.1-0.2-0.2-0.2-0.4s0.1-0.3,0.2-0.4c0.1-0.1,0.2-0.2,0.4-0.2c0.1,0,0.3,0.1,0.4,0.2l3.5,3.5l3.5-3.5
		c0.1-0.1,0.2-0.2,0.4-0.2s0.3,0.1,0.4,0.2c0.1,0.1,0.2,0.2,0.2,0.4s-0.1,0.3-0.2,0.4L20.8,20L24.3,23.5z"/>
</g>
</svg>
