<?xml version="1.0" encoding="utf-8"?>
<!-- Generator: Adobe Illustrator 18.1.1, SVG Export Plug-In . SVG Version: 6.00 Build 0)  -->
<svg version="1.1" id="图层_1" xmlns="http://www.w3.org/2000/svg" xmlns:xlink="http://www.w3.org/1999/xlink" x="0px" y="0px"
	 viewBox="0 0 40 40" enable-background="new 0 0 40 40" xml:space="preserve">
<g>
	<path fill="#FFFFFF" d="M2,39.5c-0.8,0-1.5-0.7-1.5-1.5V2c0-0.8,0.7-1.5,1.5-1.5h36c0.8,0,1.5,0.7,1.5,1.5v36
		c0,0.8-0.7,1.5-1.5,1.5H2z"/>
	<g>
		<path fill="#1BA5FA" d="M38,1c0.6,0,1,0.4,1,1v36c0,0.6-0.4,1-1,1H2c-0.6,0-1-0.4-1-1V2c0-0.6,0.4-1,1-1H38 M38,0H2
			C0.9,0,0,0.9,0,2v36c0,1.1,0.9,2,2,2h36c1.1,0,2-0.9,2-2V2C40,0.9,39.1,0,38,0L38,0z"/>
	</g>
</g>
<g>
	<path fill="#1BA5FA" d="M25.9,14.3c0.3,0.3,0.7,0.5,1.2,0.5h6.5v15.6c0,1-0.4,1.8-1,2.4c-0.7,0.6-1.5,1-2.4,1H15.4
		c-1,0-1.8-0.4-2.4-1c-0.6-0.6-1-1.5-1-2.4v-8.4H7.3c-0.2,0-0.4-0.1-0.6-0.2s-0.3-0.4-0.3-0.6v-0.8c0-0.3,0.1-0.5,0.3-0.6
		c0.2-0.2,0.4-0.2,0.6-0.3h4.6V9.6c0-1,0.4-1.8,1-2.4c0.6-0.7,1.5-1,2.4-1h10v6.9C25.4,13.6,25.5,14,25.9,14.3z M23.2,20.6
		c0-0.2-0.1-0.3-0.2-0.5L17.8,15c-0.1-0.1-0.3-0.2-0.5-0.2c-0.2,0-0.3,0.1-0.5,0.2l-0.4,0.5c-0.1,0.1-0.2,0.3-0.2,0.5
		c0,0.2,0.1,0.3,0.2,0.5l3,3h-7.4v2.6h7.3l-3,3c-0.1,0.1-0.2,0.3-0.2,0.5c0,0.2,0.1,0.3,0.2,0.5l0.4,0.5c0.1,0.1,0.3,0.2,0.5,0.2
		c0.2,0,0.3-0.1,0.5-0.2l4.7-4.7l0.5-0.5C23.1,21,23.2,20.8,23.2,20.6z M33.5,13.1h-6.5V6.2L33.5,13.1z"/>
</g>
</svg>
