<?xml version="1.0" encoding="utf-8"?>
<!-- Generator: Adobe Illustrator 18.1.1, SVG Export Plug-In . SVG Version: 6.00 Build 0)  -->
<svg version="1.1" id="图层_1" xmlns="http://www.w3.org/2000/svg" xmlns:xlink="http://www.w3.org/1999/xlink" x="0px" y="0px"
	 viewBox="0 0 40 40" enable-background="new 0 0 40 40" xml:space="preserve">
<g>
	<path fill="#FFFFFF" d="M20,39.3c-0.4,0-0.8-0.2-1.1-0.4L1.1,21.1c-0.6-0.6-0.6-1.5,0-2.1L18.9,1.1c0.3-0.3,0.7-0.4,1.1-0.4
		s0.8,0.2,1.1,0.4l17.8,17.8c0.3,0.3,0.4,0.7,0.4,1.1s-0.2,0.8-0.4,1.1L21.1,38.9C20.8,39.1,20.4,39.3,20,39.3z"/>
	<path fill="#FADB14" d="M20,1.2c0.3,0,0.5,0.1,0.7,0.3l17.8,17.8c0.4,0.4,0.4,1,0,1.4L20.7,38.5c-0.2,0.2-0.4,0.3-0.7,0.3
		s-0.5-0.1-0.7-0.3L1.5,20.7c-0.4-0.4-0.4-1,0-1.4L19.3,1.5C19.5,1.3,19.7,1.2,20,1.2 M20,0.2c-0.5,0-1,0.2-1.4,0.6L0.8,18.6
		c-0.8,0.8-0.8,2,0,2.8l17.8,17.8c0.4,0.4,0.9,0.6,1.4,0.6s1-0.2,1.4-0.6l17.8-17.8c0.8-0.8,0.8-2,0-2.8L21.4,0.8
		C21,0.4,20.5,0.2,20,0.2L20,0.2z"/>
</g>
<g>
	<path fill="#FADB14" d="M18.6,30L10,21.4c-0.8-0.8-0.8-2,0-2.8l8.5-8.5c0.8-0.8,2-0.8,2.8,0l8.5,8.5c0.8,0.8,0.8,2,0,2.8L21.4,30
		C20.6,30.7,19.4,30.7,18.6,30z"/>
</g>
</svg>
