<?xml version="1.0" encoding="utf-8"?>
<!-- Generator: Adobe Illustrator 18.1.1, SVG Export Plug-In . SVG Version: 6.00 Build 0)  -->
<svg version="1.1" id="图层_1" xmlns="http://www.w3.org/2000/svg" xmlns:xlink="http://www.w3.org/1999/xlink" x="0px" y="0px"
	 viewBox="0 0 40 40" enable-background="new 0 0 40 40" xml:space="preserve">
<g>
	<path fill="#FFFFFF" d="M2,39.5c-0.8,0-1.5-0.7-1.5-1.5V2c0-0.8,0.7-1.5,1.5-1.5h36c0.8,0,1.5,0.7,1.5,1.5v36
		c0,0.8-0.7,1.5-1.5,1.5H2z"/>
	<g>
		<path fill="#8B8B8B" d="M38,1c0.6,0,1,0.4,1,1v36c0,0.6-0.4,1-1,1H2c-0.6,0-1-0.4-1-1V2c0-0.6,0.4-1,1-1H38 M38,0H2
			C0.9,0,0,0.9,0,2v36c0,1.1,0.9,2,2,2h36c1.1,0,2-0.9,2-2V2C40,0.9,39.1,0,38,0L38,0z"/>
	</g>
</g>
<g>
	<path fill="#8B8B8B" d="M29.9,10.1c2.6,2.6,4,5.9,4.1,9.9c-0.1,4-1.5,7.3-4.1,9.9c-2.6,2.6-5.9,4-9.9,4.1c-4-0.1-7.3-1.5-9.9-4.1
		C7.5,27.3,6.1,24,6,20c0.1-4,1.5-7.3,4.1-9.9C12.7,7.5,16,6.1,20,6C24,6.1,27.3,7.5,29.9,10.1z M25.6,20c0-0.1-0.1-0.3-0.2-0.4
		l-8-6.8c-0.1-0.1-0.3-0.2-0.4-0.2c-0.1,0-0.3,0-0.4,0.2s-0.2,0.2-0.2,0.4v13.5c0,0.2,0.1,0.3,0.2,0.4s0.2,0.1,0.4,0.1
		c0.2,0,0.3,0,0.4-0.1l8-6.8C25.6,20.3,25.6,20.1,25.6,20z"/>
</g>
</svg>
