<?xml version="1.0" encoding="utf-8"?>
<!-- Generator: Adobe Illustrator 18.1.1, SVG Export Plug-In . SVG Version: 6.00 Build 0)  -->
<svg version="1.1" id="图层_1" xmlns="http://www.w3.org/2000/svg" xmlns:xlink="http://www.w3.org/1999/xlink" x="0px" y="0px"
	 viewBox="0 0 40 40" enable-background="new 0 0 40 40" xml:space="preserve">
<g>
	<path fill="#FFFFFF" d="M2,39.5c-0.8,0-1.5-0.7-1.5-1.5V2c0-0.8,0.7-1.5,1.5-1.5h36c0.8,0,1.5,0.7,1.5,1.5v36
		c0,0.8-0.7,1.5-1.5,1.5H2z"/>
	<g>
		<path fill="#1BA5FA" d="M38,1c0.6,0,1,0.4,1,1v36c0,0.6-0.4,1-1,1H2c-0.6,0-1-0.4-1-1V2c0-0.6,0.4-1,1-1H38 M38,0H2
			C0.9,0,0,0.9,0,2v36c0,1.1,0.9,2,2,2h36c1.1,0,2-0.9,2-2V2C40,0.9,39.1,0,38,0L38,0z"/>
	</g>
</g>
<g>
	<path fill="#1BA5FA" d="M33.9,32.2c0,0.4-0.1,0.7-0.4,0.9s-0.6,0.4-0.9,0.4H7.4c-0.4,0-0.7-0.1-0.9-0.4s-0.4-0.6-0.4-0.9
		c-0.1-0.2,0.1-1,0.4-2.6c0.4-1.6,1.4-2.9,3-3.9c1-0.5,1.6-0.7,1.8-0.6c0.3,0,1-0.2,2.2-0.7c1.3-0.5,2.2-0.9,2.7-1.2
		c0.5-0.2,0.7-0.3,0.7-0.3l0-2.6c0,0-0.2-0.2-0.5-0.7c-0.3-0.5-0.6-1.3-0.8-2.5c-0.3,0.1-0.5,0-0.7-0.4c-0.1-0.3-0.2-0.6-0.2-0.9
		c0-0.4-0.1-0.8-0.1-1.4c0-0.6,0.1-0.8,0.5-0.8c-0.1-0.6-0.1-1.1-0.2-1.6c0-0.5-0.1-0.9,0-1.2c0.1-1,0.6-2,1.5-2.8
		c0.9-0.8,2.1-1.3,3.6-1.4c1.7,0.1,3,0.6,3.7,1.4c0.8,0.8,1.2,1.8,1.3,2.8c0,0.3,0,0.7,0,1.2c0,0.5-0.1,1-0.2,1.6
		c0.4,0,0.5,0.3,0.5,0.8c0,0.6-0.1,1-0.1,1.4c0,0.3-0.1,0.6-0.2,1c-0.1,0.3-0.3,0.4-0.7,0.4c-0.2,1.2-0.5,2-0.8,2.5
		c-0.3,0.5-0.5,0.7-0.5,0.7v2.5c0,0,0.2,0.1,0.7,0.3s1.4,0.6,2.7,1.1c1.2,0.5,1.9,0.7,2.2,0.7c0.3,0,0.9,0.2,1.8,0.7
		c1.7,1,2.7,2.3,3,3.9C33.8,31.1,33.9,32,33.9,32.2z"/>
</g>
</svg>
